<svg xmlns="http://www.w3.org/2000/svg" width="114" height="48" fill="none" viewBox="0 0 114 48">
  <path stroke="#266079" d="M7.97 10.5c2.162 0 4.184.475 5.65 1.501 1.336.935 2.243 2.35 2.37 4.39h-3.57c-.166-1.165-.694-1.984-1.5-2.504-.874-.566-2.007-.732-3.16-.732-.803 0-1.71.168-2.433.615-.748.461-1.29 1.219-1.29 2.312 0 .46.07.894.324 1.281.251.383.639.657 1.14.89.732.343 1.846.66 3.47 1.084l1.8.466h.002c.796.2 2.291.527 3.596 1.376 1.277.83 2.355 2.147 2.355 4.372 0 .601-.203 1.718-.445 2.603-.88-2.43-3.236-3.928-5.353-4.822a21 21 0 0 0-3.293-1.059 21 21 0 0 0-1.364-.27l-.077-.013c-1.519-.416-2.943-.92-3.988-1.756C1.182 19.417.5 18.267.5 16.472c0-2.006.935-3.48 2.33-4.468 1.41-1 3.296-1.504 5.14-1.504Z"></path>
  <path fill="#266079" d="M20.199 35.014c.974 0 1.834-.587 2.336-1.815l.47-1.088-4.724-10.69c-.167-.419-.362-.502-.753-.502h-.415v-3.015h2.336c1.002 0 1.502.363 1.863 1.34l2.781 7.117c.277.725.5 1.898.5 1.898h.058s.221-1.173.47-1.898l2.42-7.118c.334-.976.918-1.339 1.89-1.339h2.392v3.015h-.416c-.419 0-.64.083-.809.502L25.51 34.288c-1 2.568-3.003 3.712-5.116 3.712-2.225 0-3.588-1.45-3.588-1.45l1.364-2.513s.86.977 2.029.977M34.748 21.533c0-.418-.223-.614-.615-.614h-1.11v-3.015h3.254c1.251 0 1.862.586 1.862 1.59v.419a4 4 0 0 1-.055.614h.056c.612-1.201 2.142-2.958 5.005-2.958 3.143 0 4.95 1.646 4.95 5.414v5.555c0 .39.223.614.612.614h1.11v2.986h-3.363c-1.335 0-1.891-.558-1.891-1.897v-6.532c0-1.73-.445-2.903-2.225-2.903-1.89 0-3.309 1.2-3.81 2.903-.195.586-.279 1.228-.279 1.899v6.53h-3.502zM57.581 17.57c1.835 0 5.144.755 5.144 3.21v1.674H59.61v-.782c0-.782-1.167-1.117-2.029-1.117-2.446 0-4.198 1.87-4.198 4.438 0 2.903 2.142 4.382 4.421 4.382 2.42 0 4.2-1.925 4.2-1.925l1.475 2.455s-2.113 2.568-5.98 2.568c-4.672 0-7.675-3.322-7.675-7.453-.003-4.018 2.89-7.45 7.757-7.45M65.645 21.533c0-.418-.222-.614-.611-.614h-1.11v-3.015h3.224c1.252 0 1.89.53 1.89 1.73v.837a6.5 6.5 0 0 1-.056.893h.056c.64-2.038 2.338-3.656 4.506-3.656q.321.005.638.056v3.49a6 6 0 0 0-.86-.057c-1.503 0-3.225.866-3.866 2.987a8.7 8.7 0 0 0-.305 2.317v5.637h-3.504zM81.8 17.57c4.34 0 7.787 3.097 7.787 7.451 0 4.381-3.448 7.453-7.786 7.453-4.311 0-7.762-3.072-7.762-7.453.002-4.354 3.451-7.452 7.762-7.452m0 11.89c2.31 0 4.227-1.788 4.227-4.44 0-2.623-1.918-4.438-4.226-4.438-2.281 0-4.199 1.815-4.199 4.439 0 2.65 1.918 4.438 4.199 4.438M91.117 20.723h-1.754v-2.819h1.754v-.419c0-4.661 3.807-5.275 5.782-5.275q.6-.006 1.197.083v3.015a4.5 4.5 0 0 0-.724-.056c-1.001 0-2.725.251-2.725 2.317v.335h3.032v2.819h-3.032v11.415h-3.53zM102.376 35.014c.973 0 1.837-.587 2.337-1.815l.473-1.09-4.728-10.689c-.167-.418-.362-.5-.752-.5h-.417v-3.016h2.335c1.003 0 1.502.363 1.865 1.34l2.779 7.117c.279.725.5 1.898.5 1.898h.057s.223-1.173.473-1.898l2.418-7.118c.335-.976.918-1.339 1.893-1.339H114v3.015h-.418c-.417 0-.639.083-.806.502l-5.089 12.867c-1.001 2.568-3.003 3.712-5.116 3.712-2.225 0-3.588-1.45-3.588-1.45l1.364-2.513s.863.977 2.029.977"></path>
</svg>




