<svg xmlns="http://www.w3.org/2000/svg" width="48" height="48" fill="none" viewBox="0 0 114 48">
  <path stroke="#266079" d="M7.97 10.5c2.162 0 4.184.475 5.65 1.501 1.336.935 2.243 2.35 2.37 4.39h-3.57c-.166-1.165-.694-1.984-1.5-2.504-.874-.566-2.007-.732-3.16-.732-.803 0-1.71.168-2.433.615-.748.461-1.29 1.219-1.29 2.312 0 .46.07.894.324 1.281.251.383.639.657 1.14.89.732.343 1.846.66 3.47 1.084l1.8.466h.002c.796.2 2.291.527 3.596 1.376 1.277.83 2.355 2.147 2.355 4.372 0 .601-.203 1.718-.445 2.603-.88-2.43-3.236-3.928-5.353-4.822a21 21 0 0 0-3.293-1.059 21 21 0 0 0-1.364-.27l-.077-.013c-1.519-.416-2.943-.92-3.988-1.756C1.182 19.417.5 18.267.5 16.472c0-2.006.935-3.48 2.33-4.468 1.41-1 3.296-1.504 5.14-1.504Z"></path>
</svg>




